<svg viewBox="0 0 20 20" xmlns="http://www.w3.org/2000/svg"><path d="m0 0h20v20h-20z" fill="none"/><path d="m16.8 5.7c-2.4-3.7-7.3-4.8-11.1-2.5-3.7 2.3-4.9 7.3-2.5 11l.2.3-.8 3 3-.8.3.2c1.3.7 2.7 1.1 4.1 1.1 1.5 0 3-.4 4.3-1.2 3.7-2.4 4.8-7.3 2.5-11.1zm-2.1 7.7c-.4.6-.9 1-1.6 1.1-.4 0-.9.2-2.9-.6-1.7-.8-3.1-2.1-4.1-3.6-.6-.7-.9-1.6-1-2.5 0-.8.3-1.5.8-2 .2-.2.4-.3.6-.3h.5c.2 0 .4 0 .5.4.2.5.7 1.7.7 1.8.1.1.1.3 0 .4.1.2 0 .4-.1.5s-.2.3-.3.4c-.2.1-.3.3-.2.5.4.6.9 1.2 1.4 1.7.6.5 1.2.9 1.9 1.2.2.1.4.1.5-.1s.6-.7.8-.9.3-.2.5-.1l1.6.8c.2.1.4.2.5.3.1.3.1.7-.1 1z"/></svg>